# xmcd
#
# Track frame offsets:
#	150
#	19264
#	36331
#	51242
#	65679
#	78796
#	97309
#	118785
#	131089
#	142214
#	157664
#	174536
#	191154
#	206293
#	222973
#	240733
#	256316
#	273752
#	290599
#	310003
#	329062
#
# Disc length: 4642 seconds
#
# Revision: 1376278
# Processed by: cddbd v1.5.2PL0 Copyright (c) Steve Scherf et al.
# Submitted via: EZCDAudioConverter 8.0.1.1
#
DISCID=44122015
DTITLE=Michael Palin - Around Wrld n 80 Days-RdBy Authr
DYEAR=1988
DGENRE=Spoken Word
TTITLE0=Day 12- 6th October 1988...
TTITLE1=The Sign To The City...
TTITLE2=Day 13- 7th October 1988...
TTITLE3=Day 14- 8th October 1988...
TTITLE4=At Lunchtime, We Stopped...
TTITLE5=Day 15- 9th October 1988...
TTITLE6=Three Friendly Qatari...
TTITLE7=Day 16- 10th October 1988...
TTITLE8=All The Time Made Up...
TTITLE9=Day 18- 12th October 1988...
TTITLE10=There Are Eighteen Of Them...
TTITLE11=Day 19- 13th October 1988...
TTITLE12=The Captain Appears Late...
TTITLE13=Once The Morning Ablutions...
TTITLE14=Day 21- 15th October 1988
TTITLE15=The Captain And His Navigator...
TTITLE16=Day 23- 17th October 1988
TTITLE17=We're Two Hundred Miles...
TTITLE18=Day 25- 19th October 1988
TTITLE19=A Copy Of The Indian Express...
TTITLE20=I Venture Into The Streets...
EXTD=
EXTT0=
EXTT1=
EXTT2=
EXTT3=
EXTT4=
EXTT5=
EXTT6=
EXTT7=
EXTT8=
EXTT9=
EXTT10=
EXTT11=
EXTT12=
EXTT13=
EXTT14=
EXTT15=
EXTT16=
EXTT17=
EXTT18=
EXTT19=
EXTT20=
PLAYORDER=
